<?xml version="1.0" encoding="utf-8"?>
<!-- Generator: Adobe Illustrator 13.0.0, SVG Export Plug-In . SVG Version: 6.00 Build 14948)  -->
<!DOCTYPE svg PUBLIC "-//W3C//DTD SVG 1.0//EN" "http://www.w3.org/TR/2001/REC-SVG-20010904/DTD/svg10.dtd">
<svg version="1.0" id="Layer_1" xmlns="http://www.w3.org/2000/svg" xmlns:xlink="http://www.w3.org/1999/xlink" x="0px" y="0px"
	 width="300px" height="200px" viewBox="0 0 300 200" enable-background="new 0 0 300 200" xml:space="preserve">
<g id="Layer_2">
	<g>
		<ellipse fill="#00186D" cx="150.247" cy="99.193" rx="135.579" ry="82.536"/>
	</g>
</g>
<g id="Layer_6">
	<g>
		<path fill="none" d="M51.231,75.861c2.537,0.333,4.858,0.904,6.958,1.711c0.187-2.301,0.452-4.894,0.825-7.789
			c-2.158,1.046-4.362,2.149-6.604,3.306L51.231,75.861z"/>
		<path fill="none" d="M159.727,52.023c-1.648,0-3.306-0.214-3.836-0.289l-7.256-0.686c0.207,0.292,0.407,0.608,0.597,0.962
			c3.572,0.227,6.276,1.388,8.046,3.46c1.063,1.244,2.209,3.327,2.031,6.425l0.291-0.307l1.496-5.944l0.026-0.104l0.03-0.104
			c0.473-1.584,1.057-2.813,1.699-3.775C161.77,51.957,160.676,52.023,159.727,52.023z"/>
		<path fill="none" d="M137.555,50.001c-0.562-0.009-1.125-0.013-1.692-0.013c-11.754,0-24.748,1.84-38.619,5.467l-0.03,0.008
			l-0.03,0.007c-7.368,1.83-15.383,4.478-23.86,7.882c-0.81,5.883-1.402,10.921-1.775,15.1c1.763-2.256,3.008-5.114,3.773-8.657
			c0.478-3.611,3.237-6.01,6.971-6.01h0.34l0.337,0.046c1.902,0.259,3.517,1.2,4.548,2.647c0.104,0.145,0.208,0.305,0.31,0.48
			c1.996-1.631,3.858-2.335,5.797-2.335c2.937,0,4.678,1.308,5.632,2.431c3.759-4.534,5.59-5.033,7.517-5.033
			c2.262,0,4.264,0.856,5.636,2.411c0.562,0.637,0.999,1.355,1.311,2.151c0.809-1.648,1.769-3.185,2.844-4.518l0.06-0.074
			l0.063-0.072c3.866-4.437,8.102-6.687,12.59-6.687c3.204,0,5.821,1.167,7.6,3.23c-0.59-1.568-0.725-3.059-0.413-4.504
			c0.329-1.523,1.158-2.849,2.367-3.836L137.555,50.001z"/>
		<path fill="none" d="M206.494,57.474c0.003-0.012,0.006-0.023,0.01-0.035c-1.988,2.263-2.893,3.957-3.291,5.11
			C204.081,61.402,205.172,59.775,206.494,57.474z"/>
		<path fill="none" d="M185.214,62.687c-0.399-0.468-0.728-0.988-0.978-1.55c-1.656,2.244-2.495,4.219-2.495,5.885
			c0,0.651,0.047,1.117,0.101,1.436c0.735-0.23,2.51-1.072,5.475-4.159C186.506,63.908,185.794,63.365,185.214,62.687z"/>
	</g>
	<g>
		<path fill="none" d="M113.616,112.77c-0.416,0.766-0.853,1.607-1.313,2.531l-2.692,7.785c-0.105,0.618-0.229,1.193-0.37,1.729
			c0.977-2.237,1.794-4.416,2.488-6.365C112.484,116.291,113.105,114.41,113.616,112.77z"/>
		<path fill="none" d="M124.816,144.632c0,0.386,0.017,0.705,0.041,0.972c0.967-0.689,2.667-2.121,5.333-5.041
			c0.32-1.803,0.78-3.955,1.367-6.403c-0.958,0.604-1.881,1.362-2.782,2.276C126.074,139.178,124.816,141.782,124.816,144.632z"/>
		<path fill="none" d="M163.563,141.369c-0.776,2.074-1.056,3.477-1.131,4.377c0.642-0.361,1.461-0.979,2.4-1.939l0.072-0.074
			l0.076-0.071c2.517-2.365,4.152-4.712,5.004-7.181c0.396-1.141,0.91-3.228,1.181-4.699c-0.604,0.382-1.392,0.988-2.378,1.957
			C166.646,135.876,164.938,138.374,163.563,141.369z"/>
		<g>
			<path fill="none" d="M164.904,143.732l0.076-0.071c2.517-2.365,4.152-4.712,5.004-7.181c0.396-1.141,0.91-3.228,1.181-4.699
				c-0.604,0.382-1.392,0.988-2.378,1.957c-2.141,2.138-3.85,4.636-5.225,7.631c-0.776,2.074-1.056,3.477-1.131,4.377
				c0.642-0.361,1.461-0.979,2.4-1.939L164.904,143.732z"/>
			<path fill="none" d="M130.19,140.563c0.32-1.803,0.78-3.955,1.367-6.403c-0.958,0.604-1.881,1.362-2.782,2.276
				c-2.701,2.742-3.959,5.347-3.959,8.196c0,0.386,0.017,0.705,0.041,0.972C125.824,144.914,127.524,143.482,130.19,140.563z"/>
			<path fill="none" d="M109.611,123.086c-0.105,0.618-0.229,1.193-0.37,1.729c0.977-2.237,1.794-4.416,2.488-6.365
				c0.755-2.158,1.376-4.039,1.887-5.68c-0.416,0.766-0.853,1.607-1.313,2.531L109.611,123.086z"/>
			<path fill="none" d="M51.231,75.861c2.537,0.333,4.858,0.904,6.958,1.711c0.187-2.301,0.452-4.894,0.825-7.789
				c-2.158,1.046-4.362,2.149-6.604,3.306L51.231,75.861z"/>
			<path fill="none" d="M185.214,62.687c-0.399-0.468-0.728-0.988-0.978-1.55c-1.656,2.244-2.495,4.219-2.495,5.885
				c0,0.651,0.047,1.117,0.101,1.436c0.735-0.23,2.51-1.072,5.475-4.159C186.506,63.908,185.794,63.365,185.214,62.687z"/>
			<path fill="none" d="M206.494,57.474c0.003-0.012,0.006-0.023,0.01-0.035c-1.988,2.263-2.893,3.957-3.291,5.11
				C204.081,61.402,205.172,59.775,206.494,57.474z"/>
			<path fill="none" d="M155.891,51.734l-7.256-0.686c0.207,0.292,0.407,0.608,0.597,0.962c3.572,0.227,6.276,1.388,8.046,3.46
				c1.063,1.244,2.209,3.327,2.031,6.425l0.291-0.307l1.496-5.944l0.026-0.104l0.03-0.104c0.473-1.584,1.057-2.813,1.699-3.775
				c-1.082,0.296-2.176,0.362-3.125,0.362C158.078,52.023,156.421,51.809,155.891,51.734z"/>
			<path fill="none" d="M135.863,49.988c-11.754,0-24.748,1.84-38.619,5.467l-0.03,0.008l-0.03,0.007
				c-7.368,1.83-15.383,4.478-23.86,7.882c-0.81,5.883-1.402,10.921-1.775,15.1c1.763-2.256,3.008-5.114,3.773-8.657
				c0.478-3.611,3.237-6.01,6.971-6.01h0.34l0.337,0.046c1.902,0.259,3.517,1.2,4.548,2.647c0.104,0.145,0.208,0.305,0.31,0.48
				c1.996-1.631,3.858-2.335,5.797-2.335c2.937,0,4.678,1.308,5.632,2.431c3.759-4.534,5.59-5.033,7.517-5.033
				c2.262,0,4.264,0.856,5.636,2.411c0.562,0.637,0.999,1.355,1.311,2.151c0.809-1.648,1.769-3.185,2.844-4.518l0.06-0.074
				l0.063-0.072c3.866-4.437,8.102-6.687,12.59-6.687c3.204,0,5.821,1.167,7.6,3.23c-0.59-1.568-0.725-3.059-0.413-4.504
				c0.329-1.523,1.158-2.849,2.367-3.836l-1.277-0.121C136.993,49.992,136.43,49.988,135.863,49.988z"/>
			<path fill="#0348C1" d="M256.18,54.425c-0.277-2.971-2.628-5.128-5.587-5.128c-0.907,0-1.807,0.199-2.718,0.604
				c0.02-0.062,0.036-0.123,0.053-0.18l0.174-0.589l0.023-0.614c0.111-2.831-0.604-5.075-2.141-6.671
				c-1.33-1.389-3.192-2.151-5.246-2.151c-0.37,0-0.754,0.024-1.143,0.072c-1.771,0.206-3.66,1.028-6.232,3.411
				c-1.064-1.395-2.656-2.281-4.5-2.502l-0.047-0.006l-0.049-0.005c-0.24-0.024-0.483-0.036-0.724-0.036
				c-1.651,0-3.599,0.652-5.003,2.298c-0.186-0.292-0.395-0.57-0.626-0.831c-1.397-1.569-3.438-2.365-6.065-2.365
				c-6.926,0-13.281,2.552-18.895,7.584l-0.063,0.057l-0.063,0.06c-0.53,0.51-1.034,1.026-1.513,1.549
				c-1.65-2.645-4.727-4.493-7.854-4.493c-3.625,0-7.168,1.544-10.572,4.585c0.122-0.517,0.193-1.053,0.193-1.606
				c0-3.865-3.145-7.01-7.01-7.01c-1.685,0-3.232,0.598-4.442,1.592c-1.026-1.285-2.544-2.242-4.31-2.626l-0.188-0.041l-0.189-0.026
				c-0.616-0.085-15.203-2.096-22.575-2.291c-1.086-0.033-2.195-0.047-3.295-0.047c-17.857,0-37.664,3.772-60.553,11.531
				l-0.043,0.015l-0.043,0.016l-1.119,0.403c-0.477-2.188-1.331-3.908-2.583-5.244c-1.636-1.747-3.819-2.669-6.312-2.669
				c-7.215,0-14.269,6.859-22.139,21.555c-4.558,2.425-9.804,5.446-15.62,8.995c-3.427,2.091-7.134,4.416-11.018,6.909
				c-0.124,0.08-1.127,13.308,1.542,13.308c0.438,0,0.882-0.036,1.319-0.106c1.007-0.163,2.02-0.309,3.03-0.454
				c0.677-0.098,1.353-0.195,2.024-0.296c0.637-0.096,1.274-0.191,1.912-0.284c1.744-0.255,3.51-0.501,5.268-0.741
				c-1.042,3.05-1.77,5.575-2.176,7.551c-0.728,2.563-0.078,4.453,0.615,5.604c0.585,0.976,2.002,2.687,4.914,3.203
				c0.338,0.063,0.728,0.102,1.113,0.102c1.204,0,5.242-0.438,6.646-6.054l0.018-0.072l0.016-0.072
				c0.425-1.94,1.425-5.512,3.771-11.832c8.661,0.316,10.966,4.277,11.993,7.747l0.024,0.083l0.027,0.082
				c1.179,3.532,3.809,5.644,7.033,5.644c0.411,0,0.828-0.037,1.241-0.108l0.062-0.011l0.062-0.014
				c1.701-0.341,3.148-1.334,4.077-2.804c0.182-0.287,0.329-0.585,0.463-0.887c0.88,1.124,2.116,1.922,3.583,2.285
				c0.551,0.152,1.117,0.228,1.686,0.228c2.834,0,5.224-1.715,7.104-5.096c0.344-0.617,0.687-1.224,1.027-1.82
				c0.079,0.168,0.165,0.332,0.258,0.493c0.845,1.458,2.219,2.497,3.868,2.924c0.656,0.17,1.28,0.253,1.905,0.253
				c3.771,0,5.6-2.887,6.479-4.274l0.097-0.153l0.085-0.16c0.323-0.602,0.661-1.212,1.018-1.836
				c1.099,1.985,2.985,3.227,4.856,3.784l0.104,0.031l0.105,0.026c0.563,0.141,1.146,0.212,1.735,0.212
				c2.278,0,4.533-1.036,6.894-3.168l0.126-0.114l0.118-0.122l2.411-2.495c1.338,1.451,2.966,2.347,4.656,2.806
				c-3.297,0.106-6.613,1.722-10.403,5.09l-0.059,0.052l-0.057,0.054c-3.381,3.2-6.366,7.498-9.125,13.139l-0.014,0.027
				l-0.013,0.028c-2.142,4.519-3.494,8.232-4.02,11.049c-0.439,2.039-1.644,7.908,3.019,10.063l0.376,0.176l0.4,0.108
				c0.708,0.192,1.42,0.292,2.117,0.292c1.521,0,3.723-0.438,5.508-2.533c-0.975,1.801-2.07,3.567-3.305,5.221
				c-1.854,2.479-6.104,7.352-8.268,9.479c-1.055,1.037-2.081,1.607-2.89,1.607c-0.037,0-0.074-0.002-0.11-0.004l-2.496-0.449
				l-0.439-0.078h-0.447c-1.938,0-3.655,0.738-4.835,2.085c-0.859,0.979-1.809,2.707-1.458,5.383l0.042,0.322l0.083,0.313
				c0.494,1.854,2.433,6.172,9.749,6.172c6.268,0,12.504-4.018,18.952-12.221c1.049,11.297,9.38,12.227,12.052,12.227
				c2.489,0,5.101-0.906,7.979-2.806c2.093,2.515,5.013,2.806,6.24,2.806c1.957,0,4.372-0.562,12.489-6.366
				c0.164,0.334,0.34,0.661,0.531,0.981l0.043,0.073l0.047,0.072c2.259,3.518,5.82,5.454,10.035,5.454
				c4.213,0,8.412-1.748,12.479-5.195c3.137-2.711,5.382-5.283,7.125-8.217c-0.979,2.65-1.406,4.473-1.406,5.951
				c0,4.267,2.979,7.246,7.245,7.246c2.305,0,5.039-1.041,12.178-6.349l7.32-5.146l0.094-0.066l0.092-0.07
				c1.457-1.129,5.864-4.541,4.397-9.248c-0.737-2.506-2.955-4.178-5.569-4.178c-1.74,0-3.483,0.696-5.66,2.26
				c-0.285,0.207-0.582,0.422-0.89,0.646c1.271-3.22,2.656-6.64,4.022-10.015c2.584-6.383,5.023-12.414,6.559-16.721
				c1.038-2.914,3.523-11.258,3.629-11.611l0.208-0.698v-0.729c-0.003-3.953-2.78-6.819-6.608-6.819
				c-5.051,0-7.075,5.761-7.855,8.056l-8.785,22.904c-0.854,1.354-2.392,3.181-5.16,5.447c-0.379-1.553-0.939-2.812-1.521-3.797
				c-2.14-3.625-5.757-5.619-10.188-5.619c-4.184,0-8.459,1.843-12.709,5.477l-0.084,0.072l-0.08,0.074
				c-3.892,3.635-6.863,7.84-8.836,12.5l-0.076,0.183l-0.063,0.188l-0.365,1.096l-3.44,2.289c3.046-5.074,5.884-10.844,8.48-17.244
				c4.205-10.484,6.246-17.93,6.246-22.778c0-8.599-6.12-8.847-6.818-8.847c-3.598,0-6.724,2.724-10.791,9.401l-0.053,0.087
				l-0.049,0.089c-2.817,5.08-5.66,11.531-8.468,19.214c-4.066,0.451-7.773,1.702-11.108,3.709c0.512-1.407,1.014-2.836,1.494-4.313
				l0.092-0.282l0.058-0.295l2.886-14.646l0.094-0.479v-0.488c0.001-6.376-3.102-9.481-6.678-10.489
				c3.725-0.071,7.309-1.381,10.383-3.819c2.482-1.968,7.222-6.401,9.298-9.268c0.063-0.086,0.124-0.172,0.186-0.258
				c0.122,1.756,0.776,3.366,1.91,4.648c1.479,1.674,3.605,2.595,5.987,2.595c2.396,0,4.99-1.01,9.151-5.052
				c1.416,1.346,3.38,2.113,5.709,2.113c2.277,0,4.634-1.177,8.376-4.389c2.099,1.58,4.746,2.411,7.817,2.411
				c4.223,0,8.443-1.827,12.803-5.559c1.855,1.525,4.232,2.353,6.977,2.353c2.4,0,5.565-0.688,8.729-3.391
				c0.771,0.244,1.572,0.363,2.363,0.363c0.674,0,1.389-0.078,2.123-0.232c1.795-0.372,3.604-1.208,5.441-2.523
				c0.705,0.48,1.512,0.813,2.38,0.977c0.56,0.134,1.118,0.202,1.668,0.202c1.31,0,3.786-0.406,5.703-3.128l0.135-0.19l0.116-0.202
				c0.622-1.086,1.246-2.14,1.871-3.162c0.271,1.096,0.74,2.176,1.511,3.133c1.31,1.627,3.188,2.53,5.293,2.542
				c2.294,0,4.367-1.215,8.563-5.002c2.289-2.066,4.726-4.494,6.123-5.983C255.328,59.018,256.387,56.648,256.18,54.425z
				 M58.189,77.572c-2.1-0.807-4.421-1.378-6.958-1.711l1.179-2.772c2.242-1.157,4.446-2.26,6.604-3.306
				C58.641,72.678,58.376,75.271,58.189,77.572z M111.729,118.449c-0.694,1.949-1.511,4.128-2.488,6.365
				c0.141-0.535,0.265-1.11,0.37-1.729l2.692-7.785c0.46-0.924,0.897-1.766,1.313-2.531
				C113.105,114.41,112.484,116.291,111.729,118.449z M163.563,141.369c1.375-2.995,3.084-5.493,5.225-7.631
				c0.986-0.969,1.773-1.575,2.378-1.957c-0.271,1.472-0.785,3.559-1.181,4.699c-0.852,2.469-2.487,4.815-5.004,7.181l-0.076,0.071
				l-0.072,0.074c-0.939,0.961-1.759,1.578-2.4,1.939C162.507,144.846,162.786,143.443,163.563,141.369z M128.775,136.436
				c0.901-0.914,1.824-1.672,2.782-2.276c-0.587,2.448-1.047,4.601-1.367,6.403c-2.666,2.92-4.366,4.352-5.333,5.041
				c-0.024-0.267-0.041-0.586-0.041-0.972C124.816,141.782,126.074,139.178,128.775,136.436z M136.466,53.958
				c-0.312,1.445-0.177,2.936,0.413,4.504c-1.779-2.063-4.396-3.23-7.6-3.23c-4.488,0-8.724,2.25-12.59,6.687l-0.063,0.072
				l-0.06,0.074c-1.075,1.333-2.035,2.87-2.844,4.518c-0.312-0.796-0.749-1.514-1.311-2.151c-1.372-1.555-3.374-2.411-5.636-2.411
				c-1.927,0-3.758,0.499-7.517,5.033c-0.954-1.123-2.695-2.431-5.632-2.431c-1.939,0-3.801,0.704-5.797,2.335
				c-0.102-0.175-0.206-0.335-0.31-0.48c-1.031-1.447-2.646-2.388-4.548-2.647l-0.337-0.046h-0.34c-3.734,0-6.493,2.399-6.971,6.01
				c-0.766,3.543-2.01,6.4-3.773,8.657c0.373-4.178,0.965-9.217,1.775-15.1c8.477-3.404,16.492-6.052,23.86-7.882l0.03-0.007
				l0.03-0.008c13.871-3.627,26.865-5.467,38.619-5.467c0.567,0,1.13,0.004,1.692,0.013l1.277,0.121
				C137.624,51.109,136.794,52.435,136.466,53.958z M161.152,55.436l-0.03,0.104l-0.026,0.104l-1.496,5.944l-0.291,0.307
				c0.178-3.098-0.969-5.181-2.031-6.425c-1.771-2.072-4.475-3.233-8.046-3.46c-0.189-0.354-0.39-0.67-0.597-0.962l7.256,0.686
				c0.53,0.075,2.188,0.289,3.836,0.289c0.949,0,2.043-0.066,3.125-0.362C162.209,52.623,161.625,53.852,161.152,55.436z
				 M181.842,68.458c-0.054-0.319-0.101-0.785-0.101-1.436c0-1.666,0.839-3.641,2.495-5.885c0.25,0.562,0.578,1.082,0.978,1.55
				c0.58,0.678,1.292,1.221,2.103,1.612C184.352,67.386,182.577,68.228,181.842,68.458z M206.494,57.474
				c-1.322,2.301-2.413,3.928-3.281,5.075c0.398-1.153,1.303-2.847,3.291-5.11C206.5,57.451,206.497,57.462,206.494,57.474z"/>
		</g>
	</g>
</g>
<g id="Layer_2_copy">
	<g>
		<g>
			<path fill="none" d="M280.327,99.194c0.019-20.816-14.188-40.031-37.756-54.144c-23.531-14.089-56.234-22.896-92.324-22.89
				c-36.09-0.006-68.791,8.801-92.323,22.89C34.356,59.163,20.15,78.378,20.169,99.194c-0.019,20.815,14.188,40.029,37.755,54.143
				c23.532,14.088,56.232,22.896,92.323,22.891c36.088,0.006,68.793-8.803,92.324-22.891
				C266.139,139.223,280.346,120.009,280.327,99.194z"/>
			<path fill="#0348C1" d="M248.977,36.134c-26.545-16.153-61.567-24.974-98.729-24.978c-37.164,0.004-72.186,8.825-98.729,24.978
				C24.452,52.588,9.169,74.981,9.167,99.192c0.002,24.21,15.285,46.603,42.352,63.059c26.542,16.151,61.565,24.97,98.729,24.977
				c37.164-0.007,72.182-8.825,98.729-24.977c27.066-16.456,42.348-38.849,42.352-63.059
				C291.324,74.981,276.041,52.588,248.977,36.134z M150.247,176.228c-36.09,0.006-68.791-8.803-92.323-22.891
				c-23.568-14.114-37.774-33.328-37.755-54.143C20.15,78.378,34.356,59.163,57.924,45.05c23.532-14.089,56.232-22.896,92.323-22.89
				c36.09-0.006,68.793,8.801,92.324,22.89c23.567,14.113,37.774,33.328,37.756,54.144c0.019,20.815-14.188,40.029-37.756,54.143
				C219.04,167.425,186.335,176.233,150.247,176.228z"/>
		</g>
		<ellipse fill="none" stroke="#06C7FF" stroke-width="4" cx="150.247" cy="99.193" rx="135.579" ry="82.536"/>
	</g>
</g>
<g id="Layer_4">
	<g>
		<g>
			<path fill="#06C7FF" d="M166.813,47.467c0-2.079,1.685-3.759,3.764-3.761l0,0c2.072,0.002,3.756,1.683,3.756,3.761l0,0
				c0,2.078-1.684,3.759-3.756,3.761l0,0C168.496,51.226,166.813,49.545,166.813,47.467L166.813,47.467z"/>
		</g>
		<g>
			<g>
				<path fill="#06C7FF" d="M160.998,42.571l0.063,0.008l0.069,0.014c0.753,0.169,1.412,0.499,1.985,0.982l0,0
					c0.543,0.482,1.117,1.176,1.146,2.282l0,0c0.018,0.783-0.426,1.588-0.998,2.039l0,0c-1.302,0.929-2.367,0.803-3.539,0.871l0,0
					c-1.555-0.004-3.08-0.215-3.432-0.264l0,0l-18.555-1.755c-0.628-0.012-1.261-0.018-1.897-0.016l0,0
					c-12.01-0.002-25.199,1.852-39.445,5.579l0,0c-8.027,1.993-16.675,4.884-26.038,8.731l0,0
					c-1.688,11.951-2.537,20.737-2.535,26.219l0,0c0,1.394,0.056,2.569,0.159,3.509l0,0c0.367,1.502,0.57,2.763,0.574,3.88l0,0
					c-0.006,0.84-0.107,1.625-0.502,2.389l0,0c-0.375,0.768-1.226,1.429-2.097,1.577l0,0l-0.043,0.007l-0.027,0.006
					c-0.204,0.031-0.422,0.054-0.657,0.054l0,0c-0.972,0.015-1.94-0.425-2.583-1.077l0,0c-0.655-0.651-1.067-1.452-1.386-2.399l0,0
					c-1.03-3.439-2.807-5.849-5.424-7.519l0,0c-2.622-1.666-6.199-2.576-10.82-2.576l0,0c-0.364,0-0.735,0.006-1.112,0.018l0,0
					c-2.471,6.469-4.026,11.308-4.71,14.443l0,0c-0.239,0.935-0.56,1.724-1.105,2.397l0,0c-0.516,0.657-1.408,1.188-2.346,1.188l0,0
					c-0.014,0-0.029,0-0.043-0.001l0,0c-0.165,0-0.352-0.014-0.545-0.049l0,0c-0.789-0.145-1.572-0.438-2.208-1.061l0,0
					c-0.645-0.615-0.97-1.545-0.954-2.364l0,0c0-0.487,0.088-0.952,0.227-1.408l0,0c0.557-2.758,1.831-6.814,3.9-12.262l0,0
					c-0.006,0.001-0.012,0.002-0.018,0.002l0,0c-4.189,0.563-8.378,1.118-12.532,1.747l0,0c-1.709,0.259-3.42,0.486-5.093,0.756l0,0
					c-0.271,0.045-0.537,0.063-0.797,0.063l0,0c-0.337-0.003-0.678-0.034-1.018-0.112c-0.363-0.084,0.534-6.73,1.234-7.21l0,0
					c10.7-6.869,19.819-12.312,27.286-16.234l0,0c3.475-6.601,6.745-11.608,9.902-15.081l0,0c3.227-3.526,6.417-5.6,9.831-5.628l0,0
					c1.987-0.058,3.88,1.071,4.798,2.825l0,0c0.917,1.661,1.265,3.729,1.301,6.298l0,0l5.046-1.815
					c20.993-7.117,40.768-11.359,59.508-11.361l0,0c1.075,0,2.146,0.016,3.21,0.043l0,0
					C146.167,40.509,160.963,42.569,160.998,42.571L160.998,42.571 M61.123,82.758c0.197-4.84,0.778-10.979,1.967-18.48l0,0
					c-4.334,1.97-8.738,4.133-13.215,6.465l0,0l-3.412,8.026C52.319,78.877,57.328,80.134,61.123,82.758L61.123,82.758z
					 M33.31,79.933l5.442-0.635l1.443-3.347C37.801,77.285,35.522,78.606,33.31,79.933L33.31,79.933z M60.27,53.908
					c-1.267,1.44-2.684,3.335-4.206,5.642l0,0c2.993-1.439,5.775-2.685,8.428-3.728l0,0c0.155-1.305,0.234-2.389,0.234-3.237l0,0
					c0.008-1.077-0.15-1.771-0.257-1.966l0,0c0-0.001-0.001-0.002-0.002-0.003l0,0c-0.01-0.001-0.021-0.002-0.033-0.002l0,0
					C63.979,50.613,62.227,51.588,60.27,53.908L60.27,53.908z"/>
			</g>
			<g>
				<path fill="#06C7FF" d="M75.555,97.262c-0.676-0.152-1.387-0.521-1.87-1.147l0,0c-0.504-0.641-0.687-1.424-0.683-2.125l0,0
					c0.002-0.696,0.154-1.368,0.394-2.073l0,0l0.562-2.363c-0.125,0.017-0.253,0.03-0.385,0.037l0,0
					c-0.456,0.002-0.963-0.114-1.368-0.35l0,0c-1.08-0.57-2.184-1.584-2.202-3.131l0,0c0.035-1.37,0.801-2.29,1.68-3.089l0,0
					c3.384-2.958,5.664-7.125,6.847-12.692l0,0c0.09-0.864,0.441-1.772,1.169-2.408l0,0c0.758-0.668,1.717-0.889,2.594-0.887l0,0
					h0.114l0.119,0.017c0.731,0.096,1.53,0.387,2.124,1.039l0,0c0.597,0.647,0.814,1.505,0.806,2.24l0,0
					c0,0.352-0.042,0.695-0.113,1.056l0,0l-0.947,4.575c0.899-1.318,1.752-2.477,2.565-3.476l0,0
					c2.281-2.707,4.109-4.49,6.666-4.611l0,0c0.417-0.004,0.851,0.039,1.274,0.147l0,0l0.346,0.103
					c0.538,0.188,1.045,0.491,1.459,0.948l0,0c0.81,0.906,1.02,2.03,1.022,3.133l0,0c0,0.712-0.089,1.468-0.241,2.294l0,0
					l-0.095,0.515c2.775-4.017,4.929-6.742,6.543-8.263l0,0c0.878-0.737,1.445-1.374,2.841-1.48l0,0
					c1.141-0.015,2.373,0.368,3.191,1.303l0,0c0.814,0.929,1.08,2.109,1.08,3.31l0,0c0,0.385-0.027,0.785-0.077,1.203l0,0
					l-0.009,0.058l-2.004,10.331c0.347-0.332,0.645-0.621,0.853-0.83l0,0c0.971-0.973,3.517-3.718,4.503-4.786l0,0
					c0.42-3.818,1.993-8.271,4.824-11.807l0,0c3.056-3.52,6.455-5.568,10.14-5.571l0,0c2.044-0.019,3.963,0.677,5.208,2.161l0,0
					c1.243,1.474,1.724,3.438,1.726,5.683l0,0c-0.017,2.929-1.803,5.487-4.659,7.837l0,0c-2.825,2.493-5.94,4.244-9.763,4.975l0,0
					c0.178,2.161,0.625,3.479,0.84,3.784l0,0c1.106-0.031,2.202-0.414,3.599-1.357l0,0c1.438-0.974,3.12-2.554,5.121-4.708l0,0
					c4.294-4.742,7.459-10.532,9.544-17.655l0,0c-0.81-1.256-1.315-2.434-1.338-3.738l0,0c-0.051-1.261,0.733-2.578,1.824-3.182l0,0
					c0.578-0.417,1.268-0.745,2.102-0.75l0,0c1.328-0.008,2.329,0.928,2.813,1.823l0,0c0.318,0.557,0.561,1.175,0.761,1.877l0,0
					c0.285-0.011,0.564-0.016,0.838-0.016l0,0c2.323,0.009,4.251,0.365,5.789,1.372l0,0c1.562,0.995,2.438,2.818,2.396,4.677l0,0
					c0,0.433-0.037,0.875-0.106,1.322l0,0l-0.008,0.048l-2.074,9.684l8.656-9.111l1.709-6.791l0.018-0.05
					c0.367-1.222,0.766-2.208,1.336-3.031l0,0c0.539-0.793,1.47-1.586,2.715-1.59l0,0c0.225,0,0.441,0.027,0.646,0.074l0,0
					c0.704,0.078,1.49,0.411,2.009,1.052l0,0c0.559,0.683,0.715,1.486,0.713,2.198l0,0c-0.004,0.81-0.184,1.612-0.477,2.498l0,0
					l-2.236,9.208c-0.422,1.564-0.762,2.948-1.024,4.119l0,0l3.679-3.132v-0.527c-0.002-4.4,1.826-8.762,5.334-13.054l0,0
					c3.477-4.09,7.137-6.424,11.012-6.443l0,0c2.793,0.106,4.979,1.955,5.707,4.363l0,0c0.313,1.266,0.328,2.804,0.338,3.97l0,0
					c0,0.77-0.021,1.326-0.021,1.34l0,0l-0.002,0.031l-0.004,0.05c-0.012,0.115-0.021,0.229-0.034,0.34l0,0
					c1.133-2.864,3.042-5.58,5.677-8.098l0,0c4.896-4.407,10.557-6.766,16.723-6.755l0,0c1.062,0.011,2.027,0.133,2.945,0.693l0,0
					c0.94,0.543,1.543,1.757,1.492,2.788l0,0c0.002,0.156-0.008,0.322-0.021,0.441l0,0c-0.059,0.866-0.426,1.822-1.185,2.444l0,0
					c-0.751,0.623-1.659,0.812-2.493,0.81l0,0c-0.416,0-0.834-0.044-1.267-0.121l0,0l-0.047-0.011
					c-0.589-0.123-1.173-0.185-1.761-0.185l0,0c-2.797-0.002-5.879,1.393-9.215,4.638l0,0c-3.604,3.843-5.168,7.169-5.142,9.604l0,0
					c-0.009,1.805,0.247,3.081,0.552,3.689l0,0c0.354,0.61,0.359,0.537,0.682,0.604l0,0l0.045,0.002l0.045,0.004
					c0.059,0.006,0.109,0.01,0.15,0.008l0,0c0.506,0.04,1.696-0.473,3.217-2.132l0,0c1.488-1.595,3.244-4.129,5.185-7.552l0,0
					c0.921-3.35,1.649-5.481,2.923-6.898l0,0c0.449-0.472,1.145-0.961,2.125-0.968l0,0c0.905,0.004,1.941,0.417,2.559,1.224l0,0
					c0.621,0.797,0.805,1.729,0.808,2.654l0,0c-0.008,1.322-0.367,2.779-1.021,4.503l0,0c-0.603,1.617-1.029,2.975-1.32,4.11l0,0
					c2.115-1.865,4.683-5.078,7.646-9.794l0,0l1.266-6.167c0.16-0.891,0.447-1.715,1.063-2.41l0,0
					c0.607-0.706,1.601-1.102,2.468-1.079l0,0c0.137-0.002,0.271,0.006,0.432,0.023l0,0c0.813,0.081,1.738,0.485,2.307,1.251l0,0
					c0.57,0.758,0.729,1.626,0.729,2.457l0,0c0,0.554-0.068,1.126-0.189,1.738l0,0l-0.021,0.114l-0.035,0.106
					c-0.143,0.418-0.277,0.839-0.41,1.264l0,0c1.07-1.352,2.064-2.528,2.986-3.53l0,0c2.32-2.438,3.983-3.968,6.115-4.305l0,0
					c0.264-0.036,0.524-0.054,0.782-0.054l0,0c0.384-0.01,0.781,0.038,1.17,0.143l0,0l0.224,0.067
					c0.711,0.237,1.369,0.671,1.814,1.299l0,0c0.732,1.011,0.934,2.186,0.938,3.468l0,0c0,0.135,0,0.29-0.006,0.456l0,0
					l-0.012,0.218l-0.061,0.208c0,0.006-0.705,2.418-1.483,5.25l0,0c-0.479,1.736-0.987,3.649-1.369,5.217l0,0l6.113-5.75
					l0.11-0.075c0.75-0.492,1.424-0.873,2.414-0.904l0,0c0.494-0.01,1.153,0.169,1.639,0.641l0,0
					c0.482,0.469,0.672,1.068,0.712,1.541l0,0l0.006,0.052l0.002,0.054c-0.002,0,0.003,0.052,0.003,0.154l0,0
					c-0.042,1.157-0.509,1.855-0.938,2.554l0,0c-0.449,0.679-0.953,1.27-1.359,1.703l0,0c-1.119,1.191-3.064,3.149-5.07,5.006l0,0
					c-2.029,1.865-3.992,3.579-5.539,4.442l0,0c-0.479,0.237-0.879,0.479-1.674,0.51l0,0l0,0c-0.004,0-0.009,0-0.013,0l0,0
					c-1.378,0.036-2.647-0.872-3.164-1.905l0,0c-0.562-1.028-0.71-2.131-0.718-3.257l0,0c0-0.866,0.107-1.749,0.291-2.613l0,0
					c0.32-1.501,0.912-4.341,1.468-7.026l0,0c-3.253,4.018-6.367,8.651-9.39,13.921l0,0l-0.039,0.066l-0.051,0.075
					c-0.617,0.939-1.762,1.773-3.045,1.744l0,0c-0.338,0.002-0.664-0.045-0.974-0.125l0,0c-0.717-0.107-1.479-0.513-1.935-1.149l0,0
					c-0.316-0.433-0.486-0.899-0.568-1.359l0,0c-2.256,2.186-4.438,3.552-6.688,4.051l0,0c-0.494,0.1-0.976,0.16-1.453,0.16l0,0
					c-1.039,0.018-2.151-0.331-2.936-1.097l0,0c-2.326,2.634-5.09,4.131-8.154,4.126l0,0c-1.934,0.01-3.748-0.552-5.119-1.768l0,0
					c-0.646-0.57-1.176-1.255-1.598-2.032l0,0c-4.408,4.472-8.688,6.971-13.061,7.007l0,0c-3.209,0.07-5.977-1.273-7.684-3.653l0,0
					c-1.613,1.501-2.998,2.695-4.193,3.595l0,0c-1.633,1.168-2.727,1.953-4.318,2.036l0,0c-1.334,0.011-2.689-0.385-3.633-1.393l0,0
					c-0.789-0.843-1.15-1.923-1.245-3.063l0,0c-1.438,1.618-2.747,2.968-3.938,4.058l0,0c-2.246,1.984-3.928,3.248-6.043,3.337l0,0
					c-0.471,0.003-0.938-0.056-1.382-0.176l0,0l-0.673-0.236c-0.489-0.215-0.937-0.513-1.315-0.893l0,0
					c-0.872-0.864-1.303-2.08-1.297-3.304l0,0c0-0.241,0.015-0.483,0.046-0.729l0,0l0.01-0.073l3.269-15.56
					c-0.271-0.082-0.761-0.166-1.421-0.197l0,0c-1.539,4.822-4.034,10.121-7.95,15.526l0,0c-1.93,2.633-6.234,6.666-8.687,8.628l0,0
					c-1.78,1.416-4.721,3.128-8.68,3.128l0,0c-1.967,0.019-3.922-0.76-5.254-2.342l0,0c-0.697-0.816-1.227-1.799-1.601-2.937l0,0
					l-5.439,5.628l-0.038,0.033c-1.549,1.37-2.975,2.292-4.715,2.329l0,0c-0.313,0-0.631-0.037-0.943-0.114l0,0l-0.052-0.015
					l-0.023-0.006c-1.007-0.295-1.94-0.841-2.581-1.69l0,0c-0.647-0.843-0.916-1.894-0.912-2.92l0,0
					c0-0.645,0.096-1.299,0.258-1.955l0,0l1.459-6.229c-3.175,4.48-5.826,8.579-7.89,12.426l0,0l-0.031,0.06l-0.033,0.05
					c-0.441,0.689-0.824,1.274-1.393,1.813l0,0c-0.545,0.541-1.461,0.974-2.34,0.949l0,0c-0.381,0-0.741-0.059-1.093-0.148l0,0
					c-0.748-0.179-1.474-0.714-1.853-1.38l0,0c-0.387-0.664-0.494-1.353-0.498-2.009l0,0c0.002-0.666,0.115-1.325,0.299-2.011l0,0
					l1.694-8.162c-2.602,3.626-5.43,8.115-8.448,13.533l0,0c-0.522,0.933-1.062,1.701-1.72,2.317l0,0
					c-0.645,0.602-1.505,1.104-2.543,1.105l0,0c-0.006,0-0.013,0-0.019,0l0,0C76.107,97.378,75.824,97.337,75.555,97.262
					L75.555,97.262z M124.748,67.707l-0.046,0.054l-0.025,0.027c-1.37,1.483-2.232,3.07-2.704,4.894l0,0
					c1.717-0.489,3.149-1.37,4.852-2.693l0,0c1.676-1.355,2.59-2.309,2.644-4.186l0,0c0-0.027,0-0.059,0-0.1l0,0
					c0-0.414-0.05-0.702-0.1-0.862l0,0c-0.02-0.065-0.036-0.105-0.046-0.129l0,0c-0.011-0.001-0.024-0.001-0.043-0.001l0,0h-0.002
					c-0.014,0-0.028,0-0.043,0l0,0C128.111,64.709,126.545,65.514,124.748,67.707L124.748,67.707z M182.581,57.977
					c-2.851,3.46-4.099,6.468-4.091,9.045l0,0c-0.008,1.996,0.382,3.27,0.837,3.88l0,0c0.46,0.585,0.914,0.855,2.116,0.891l0,0
					c2.214,0.124,6.393-2.611,11.324-8.789l0,0c0.059-0.852,0.182-1.694,0.365-2.525l0,0c-0.543,0.815-1.678,1.352-2.568,1.292l0,0
					c-0.01,0-0.061,0-0.152-0.002l0,0c-0.896-0.029-1.848-0.302-2.557-1.008l0,0c-0.715-0.704-0.979-1.676-0.974-2.523l0,0
					c0-0.21,0.017-0.416,0.04-0.625l0,0l0.002-0.022l0.01-0.05c0.24-1.436,0.385-2.561,0.383-3.243l0,0
					c0-0.128-0.006-0.24-0.015-0.334l0,0C186.462,54.128,184.645,55.269,182.581,57.977L182.581,57.977z M132.702,65.858
					c0-0.008,0-0.017-0.001-0.024l0,0h-1.481L132.702,65.858L132.702,65.858z"/>
			</g>
			<g>
				<path fill="#06C7FF" d="M88.435,155.452c-1.183-0.574-2.118-1.671-2.435-2.94l0,0l-0.027-0.1l-0.015-0.107
					c-0.035-0.246-0.052-0.48-0.05-0.707l0,0c-0.008-0.718,0.185-1.6,0.857-2.265l0,0c0.677-0.662,1.547-0.843,2.261-0.839l0,0v1.75
					l-0.2,1.107l0.2-1.107v-1.75h0.153l2.762,0.497c0.194,0.022,0.387,0.034,0.578,0.032l0,0c1.429-0.004,3.185-0.602,5.168-2.539
					l0,0c2.269-2.226,6.69-7.299,8.593-9.852l0,0c3.733-4.986,6.299-10.886,8.514-17.113l0,0c2.978-8.455,4.419-14.352,4.392-16.953
					l0,0c0.003-0.403-0.059-0.653-0.095-0.754l0,0c-0.028-0.004-0.07-0.008-0.133-0.008l0,0c-0.7-0.045-2.108,0.631-3.843,2.704l0,0
					c-1.714,2.021-3.685,5.218-5.817,9.528l0,0l-2.853,8.248c-0.281,1.773-0.693,3.203-1.424,4.371l0,0
					c-0.71,1.195-2.077,2.127-3.547,2.091l0,0c-0.42,0-0.843-0.062-1.259-0.174l0,0l-0.145-0.039l-0.13-0.063
					c-0.729-0.336-1.164-0.994-1.353-1.545l0,0c-0.201-0.568-0.252-1.113-0.254-1.707l0,0c0.002-0.927,0.149-1.979,0.41-3.191l0,0
					c0.485-2.631,1.762-6.069,3.783-10.346l0,0c2.47-5.041,5.236-9.17,8.481-12.245l0,0c3.021-2.665,5.717-4.259,8.593-4.29l0,0
					c1.861-0.029,3.671,0.702,4.758,2.166l0,0c1.089,1.45,1.476,3.302,1.48,5.464l0,0v0.17l-2.937,14.908l-0.035,0.105
					c-2.76,8.498-6.021,15.743-9.875,21.745l0,0c-7.027,10.647-13.56,16.451-20.385,16.562l0,0
					C90.996,156.266,89.617,156.046,88.435,155.452L88.435,155.452z M88.716,151.967l0.009-0.049L88.716,151.967L88.716,151.967z
					 M88.75,151.781l0.051-0.281L88.75,151.781L88.75,151.781z M119.069,101.764L119.069,101.764
					C119.07,101.764,119.07,101.764,119.069,101.764L119.069,101.764C119.07,101.764,119.07,101.764,119.069,101.764
					L119.069,101.764z"/>
			</g>
			<g>
				<path fill="#06C7FF" d="M153.643,152.477c-0.836-1.397-1.319-2.99-1.479-4.713l0,0c-5.265,3.95-9.031,6.479-11.552,7.693l0,0
					c-1.017,0.468-1.797,0.791-2.781,0.813l0,0c-1.663,0.054-3.353-0.83-4.188-2.295l0,0c-0.405-0.678-0.68-1.425-0.859-2.25l0,0
					c-3.34,2.871-6.25,4.482-9.171,4.545l0,0c-2.76,0.031-5.251-1.039-6.773-3.142l0,0c-1.524-2.081-2.133-4.868-2.139-8.28l0,0
					c-0.021-5.871,2.396-11.195,7.057-15.426l0,0c4.393-4.257,9.852-6.527,16.162-6.777l0,0c3.04-8.559,6.034-15.429,9-20.773l0,0
					c1.456-2.386,2.756-4.214,3.978-5.527l0,0c1.234-1.273,2.344-2.243,4.039-2.313l0,0c1.313-0.05,2.51,0.949,2.93,1.979l0,0
					c0.482,1.044,0.631,2.209,0.639,3.617l0,0c-0.025,4.682-2.081,11.717-6.009,21.559l0,0c-3.863,9.524-8.204,17.485-12.961,23.832
					l0,0l-0.22,2.635c-0.002,0.395,0.027,0.729,0.066,0.992l0,0l13.817-9.195l0.738-2.221l0.027-0.065
					c1.866-4.412,4.645-8.199,8.12-11.444l0,0c3.493-2.986,7.019-4.688,10.599-4.695l0,0c3.127-0.049,5.898,1.404,7.389,4.02l0,0
					c1.061,1.805,1.558,3.939,1.556,6.266l0,0c0,0.655-0.039,1.33-0.114,2.021l0,0c5.491-3.647,9.18-7.116,10.971-10.144l0,0
					l8.918-23.252c0.563-1.639,1.121-2.92,1.781-3.92l0,0c0.651-0.953,1.496-1.921,3.014-1.978l0,0
					c0.828-0.017,1.837,0.263,2.512,1.033l0,0c0.669,0.762,0.845,1.684,0.845,2.533l0,0v0.254c0,0-2.575,8.773-3.61,11.68
					c-1.452,4.079-3.022,7.625-6.465,16.182l0,0c-2.951,7.335-6.182,15.561-7.927,20.607l0,0c1.015-0.73,2.173-1.567,3.325-2.399
					l0,0c3.164-2.289,6.279-4.55,6.29-4.556l0,0c1.375-0.944,2.354-1.59,3.765-1.653l0,0c0.495-0.006,1.114,0.146,1.604,0.541l0,0
					c0.47,0.374,0.736,0.886,0.863,1.334l0,0c0.084,0.279,0.137,0.584,0.137,0.908l0,0c-0.143,2.104-1.506,3.256-3.416,4.825l0,0
					l-0.025,0.019l-7.376,5.188c-2.438,1.813-4.454,3.191-6.089,4.148l0,0c-1.676,0.938-2.799,1.538-4.203,1.596l0,0
					c-1.029,0.006-2.139-0.26-2.953-1.086l0,0c-0.808-0.828-1.046-1.916-1.041-2.908l0,0c0.03-1.566,0.639-3.379,1.662-6.02l0,0
					l3.768-9.938l-8.84,6.018c-1.912,4.09-4.504,7.006-7.662,9.723l0,0c-3.34,2.843-6.797,4.429-10.377,4.427l0,0
					c-0.045,0-0.09,0-0.137,0l0,0C157.837,156.486,155.215,155.014,153.643,152.477L153.643,152.477z M159.152,146.307
					c0,1.146,0.229,1.959,0.549,2.484l0,0c0.419,0.518,0.435,0.551,1.29,0.611l0,0c0.127,0.004,0.209,0.008,0.249,0.006l0,0
					c1.482,0.017,3.523-0.887,5.964-3.381l0,0c2.542-2.387,4.713-5.18,5.853-8.487l0,0c0.527-1.499,1.385-5.09,1.514-6.576l0,0
					c0.014-0.174,0.021-0.329,0.021-0.464l0,0c-0.01-0.941-0.271-1.445-0.604-1.876l0,0c-0.568-0.628-0.635-0.688-1.307-0.737l0,0
					v0.002c-1.484-0.031-3.629,1.019-6.193,3.551l0,0c-2.549,2.552-4.453,5.44-5.928,8.685l0,0
					C159.596,142.654,159.146,144.757,159.152,146.307L159.152,146.307z M126.46,134.154c-3.356,3.43-4.883,6.779-4.893,10.479l0,0
					c-0.008,1.973,0.369,3.266,0.816,3.887l0,0c0.458,0.601,0.857,0.849,1.976,0.885l0,0c0.265,0.051,1.509-0.396,3.118-1.705l0,0
					c1.549-1.227,3.492-3.119,5.761-5.659l0,0c0.479-2.995,1.442-7.274,2.957-12.897l0,0
					C132.559,129.579,129.404,131.193,126.46,134.154L126.46,134.154z M143.901,125.604c3.062-6.049,5.177-11.547,6.355-16.465l0,0
					C147.932,113.739,145.809,119.23,143.901,125.604L143.901,125.604z"/>
			</g>
		</g>
	</g>
</g>
<g id="Layer_7">
	<g>
		<circle fill="#FFFFFF" cx="170.574" cy="47.468" r="2.01"/>
	</g>
	<g>
		<path fill="#FFFFFF" d="M160.76,44.305c0,0-14.843-2.056-22.022-2.245c-19.396-0.512-40.036,3.742-62.111,11.225l-7.43,2.673
			c0.428-6.576-0.962-9.889-4.276-9.889c-5.238,0-11.385,6.734-18.44,20.258c-7.483,3.901-16.729,9.407-27.634,16.409
			c-0.816,0.524-1.815,1.035-2.394,1.843c-1.205,1.685,0.281,2.454,1.755,2.216c1.698-0.274,3.416-0.503,5.103-0.758
			c4.177-0.632,8.375-1.188,12.563-1.75c0.989-0.132,1.977-0.287,2.963-0.427c-2.726,6.896-4.33,11.866-4.917,14.861
			c-0.481,1.496,0.053,2.404,1.55,2.671c0.855,0.158,1.604-0.533,2.031-2.246c0.749-3.421,2.459-8.659,5.185-15.714
			c11.065-0.642,17.853,3.153,20.258,11.278c0.535,1.603,1.444,2.405,2.673,2.191c1.337-0.268,1.55-2.191,0.642-5.826
			c-0.588-5.131,0.267-15.554,2.512-31.269c9.782-4.063,18.815-7.109,27.207-9.193c15.126-3.956,29.13-5.827,41.852-5.613
			l18.656,1.763c0,0,4.578,0.697,5.664-0.212C163.115,45.742,161.988,44.573,160.76,44.305z M39.959,80.919l-14.251,1.664
			c5.613-3.582,11.364-7.009,18.099-10.59L39.959,80.919z M65.083,48.958c1.497,0.481,1.708,3.043,1.014,8.122
			c-4.383,1.658-9.163,3.921-14.722,6.753C57.333,53.542,62.333,48.125,65.083,48.958z M48.511,69.481
			c5.719-2.994,11.332-5.719,16.837-8.125c-1.924,11.119-2.557,19.467-2.557,25.186c-3.902-4.383-10.432-6.317-18.984-5.996
			L48.511,69.481z"/>
	</g>
	<g>
		<path fill="#FFFFFF" d="M216.137,48.313c1.762,0.321,2.777-0.16,2.887-1.55c0.16-1.389-0.75-2.03-2.674-2.03
			c-5.721,0-10.904,2.138-15.555,6.307c-4.063,3.902-6.146,8.125-6.309,12.615c-5.237,6.575-9.62,9.889-13.043,9.889
			c-3.152,0-4.702-2.138-4.702-6.521c0-3.153,1.497-6.521,4.489-10.156c2.672-3.421,5.006-4.905,6.771-4.637
			c1.333,0.292,1.248,2.125,0.66,5.599c-0.16,1.336,0.426,2.14,1.817,2.191c1.146,0.042,1.604-0.749,1.764-2.672
			c0,0,0.134-3.289-0.262-4.806c-0.396-1.521-2.196-3.052-4.016-3.052c-3.102,0-6.361,1.924-9.676,5.826
			c-3.313,4.063-4.917,8.017-4.917,11.92v1.336l-7.911,6.735c-0.104-0.695,0.43-3.742,1.816-8.979l2.246-9.248
			c0.746-2.191,0.48-3.42-0.854-3.527c-1.069-0.32-1.979,0.802-2.728,3.314l-1.816,7.216L150.87,78.034l3.366-15.715
			c0.642-4.062-2.244-5.826-8.55-5.238c-0.642-3.42-1.765-4.543-3.368-3.314c-1.497,0.855-1.337,2.619,0.481,5.132
			c-2.138,7.697-5.506,14.004-10.156,19.135c-4.113,4.425-6.991,6.644-10.145,6.644c-1.497,0-2.37-2.221-2.531-7.031
			c4.223-0.481,7.383-2.125,10.43-4.797c2.727-2.246,4.062-4.383,4.062-6.521c0-4.01-1.763-6.094-5.185-6.094
			c-2.994,0-5.933,1.657-8.82,4.971c-2.673,3.314-4.189,7.828-4.457,11.41c0,0-3.674,3.988-4.95,5.268
			c-1.176,1.18-4.841,4.576-4.841,4.576l3.023-15.587c0.321-2.566-0.534-3.849-2.458-3.849c-1.497,0-5.815,5.395-12.649,16.103
			l1.637-8.94c0.588-3.153,0-4.56-2.137-4.56c-2.833,0-7,5.333-12.958,15.708l2.962-14.302c0.267-1.336-0.16-2.084-1.336-2.245
			c-1.229,0-1.924,0.588-2.031,1.816c-1.23,5.881-3.688,10.477-7.43,13.738c-1.497,1.336-1.443,2.459,0.214,3.368
			c0.748,0.427,1.923-0.16,3.581-1.817l-1.55,6.521c-0.642,1.817-0.321,2.886,0.909,3.153c1.016,0.32,2.084-0.535,3.154-2.459
			c4.917-8.819,9.345-15.234,13.194-19.564L89.125,89c-0.482,1.763-0.289,3.012,0.792,3.292c1.321,0.343,1.891-0.254,2.906-1.857
			c3.154-5.881,7.588-12.237,13.094-19.56l-3.419,14.588c-0.588,2.406,0.053,3.902,2.031,4.49c1.069,0.268,2.405-0.32,4.063-1.817
			l7.753-8.021c0.321,4.972,2.627,7.188,5.75,7.188c3.439,0,5.992-1.479,7.594-2.75c2.305-1.828,6.656-5.938,8.355-8.283
			c4.139-5.714,6.628-11.278,8.071-16.249c3.314-0.106,4.81,0.535,4.49,2.032l-3.313,15.768c-0.243,1.967,0.909,3.368,2.886,3.368
			c2.298,0,6.468-3.848,12.613-11.492l-0.907,5.185c0,2.245,1.07,3.368,3.154,3.368c1.39,0,4.33-2.245,8.979-6.735
			c1.229,3.154,3.637,4.757,7.217,4.757c4.168,0,8.766-2.886,13.736-8.551c0.75,3.581,2.778,5.345,6.041,5.345
			c3.152,0,6.039-1.924,8.551-5.826c0.162,2.245,1.338,3.154,3.637,2.672c2.833-0.587,6.146-3.313,9.888-8.285l-1.122,4.705
			c-0.16,1.175,0.213,1.924,1.122,2.031c0.908,0.267,1.604,0,2.245-0.909c4.383-7.644,8.979-14.004,13.951-19.136
			c0,0-2.076,10.095-2.801,13.478c-0.584,2.729-0.229,5.646,1.891,5.658c1.609,0.009,8.533-6.768,11.011-9.407
			c0.726-0.772,1.903-2.248,1.818-3.154c-0.073-0.785-0.854-0.802-2.031,0l-8.071,7.589l-1.175,0.962
			c-0.268-0.16-0.425-0.869-0.214-2.085c0.576-3.321,3.42-13.042,3.42-13.042c0.107-2.672-0.854-3.848-2.938-3.581
			c-2.406,0.267-6.735,5.025-13.099,14.165c0.644-3.421,1.443-6.734,2.513-9.888c0.429-2.139,0-3.208-1.336-3.368
			c-1.068-0.107-1.766,0.534-2.03,2.031l-1.337,6.521c-4.65,7.376-8.275,11.433-11.588,12.608c0-1.763,0.524-4.286,1.969-8.188
			c1.496-3.903,1.094-5.969-0.75-6.025c-1.068,0-2.191,2.299-3.368,6.789c-4.222,7.484-7.644,11.064-10.368,10.744
			c-1.924-0.107-2.886-2.138-2.886-6.04c0-3.153,1.868-6.788,5.61-10.797C207.85,49.063,212.073,47.459,216.137,48.313z
			 M131.219,65.833c-0.045,2.626-1.563,4.156-3.313,5.531c-2.497,1.962-4.801,3.202-8.063,3.469
			c0.267-3.154,1.362-5.886,3.553-8.238c1.978-2.405,3.955-3.635,5.879-3.635C130.469,62.958,131.253,63.802,131.219,65.833z"/>
	</g>
	<g>
		<path fill="#FFFFFF" d="M89.028,150.245c-1.069,0-1.497,0.589-1.336,1.817c0.427,1.604,2.031,2.459,4.917,2.459
			c5.666,0,12.026-5.238,18.922-15.77c3.741-5.826,6.948-12.938,9.674-21.328l2.886-14.646c0-3.899-1.497-5.878-4.49-5.878
			c-2.138,0-4.543,1.283-7.43,3.849c-2.993,2.833-5.666,6.788-8.071,11.705c-1.977,4.17-3.207,7.538-3.634,9.889
			c-0.588,2.729-0.481,4.225,0.214,4.547c2.138,0.586,3.475-1.072,4.062-5.025l2.94-8.5c4.383-8.872,8.125-13.31,11.278-13.31
			c1.336,0,1.977,0.855,1.977,2.513c0,3.101-1.497,8.979-4.489,17.531c-2.245,6.309-4.868,12.375-8.766,17.586
			c-1.997,2.67-6.389,7.711-8.766,10.049c-2.543,2.502-5.078,3.263-7.216,2.994L89.028,150.245z"/>
	</g>
	<g>
		<path fill="#FFFFFF" d="M207.797,97.596c0-1.229-0.535-1.816-1.604-1.816c-1.017,0-2.084,1.603-3.153,4.756l-8.979,23.412
			c-2.393,4.093-7.477,8.468-15.09,13.041c1.336-4.546,1.192-8.339-0.41-11.063c-1.229-2.085-3.207-3.154-5.881-3.154
			c-2.992,0-6.146,1.444-9.459,4.277c-3.262,3.047-5.881,6.627-7.646,10.797l-0.908,2.728l-15.501,10.313
			c-1.069,0-1.603-1.121-1.603-3.313l0.267-3.206c4.758-6.253,9.141-14.22,13.042-23.841c3.901-9.729,5.88-16.729,5.88-20.898
			c0-2.511-0.643-3.847-1.818-3.847c-1.494,0-3.688,2.35-6.521,7.001c-2.994,5.396-6.093,12.563-9.248,21.594
			c-6.467,0-11.813,2.085-16.195,6.311c-4.383,4.006-6.521,8.766-6.521,14.164c0,6.414,2.405,9.674,7.162,9.674
			c2.727,0,6.254-2.191,10.637-6.521v0.643c0,3.955,1.175,5.879,3.581,5.879c1.816,0,7.163-3.42,16.196-10.371
			c-0.428,2.994-0.053,5.453,1.121,7.433c1.338,2.085,3.262,3.154,5.826,3.154c3.047,0,6.094-1.336,9.246-4.011
			c3.154-2.727,5.588-5.5,7.405-9.562l13.833-9.417l-5.737,15.13c-1.015,2.563-1.549,4.384-1.549,5.397
			c0,1.498,0.692,2.244,2.245,2.244c1.336,0,4.436-1.816,9.246-5.397l7.376-5.187c2.139-1.655,2.994-2.885,2.673-3.849
			c-0.27-1.015-1.441-0.802-3.525,0.695c0,0-12.496,9.062-12.83,9.248c-0.31,0.175-0.612-0.747-0.211-2.032
			c2.896-9.292,11.664-29.347,15.168-39.188C205.318,105.988,207.797,97.596,207.797,97.596z M138.257,127.264h0.266
			c-1.977,7.106-3.153,12.293-3.635,15.553c-4.917,5.562-8.445,8.341-10.529,8.341c-3.046,0-4.543-2.192-4.543-6.522
			c0-4.222,1.817-8.068,5.397-11.703C128.956,129.132,133.286,127.264,138.257,127.264z M172.68,126.139
			c1.229,0,1.994,0.547,2.672,1.391c0.633,0.789,1.117,1.931,0.963,3.58c-0.168,1.789-1.019,5.309-1.604,7.006
			c-1.268,3.669-3.635,6.682-6.309,9.191c-2.672,2.729-5.185,3.955-7.43,3.851c-1.229,0-2.084-0.431-2.728-1.392
			c-1.335-2.191-1.067-5.666,0.696-10.314c1.55-3.424,3.58-6.521,6.308-9.247C167.977,127.529,170.434,126.139,172.68,126.139z
			 M138.952,137.846c3.635-16.464,8.338-28.757,14.165-36.882C152.957,110.746,148.199,123.039,138.952,137.846z"/>
	</g>
</g>
<g id="Layer_5">
	<path fill="#06C7FF" d="M210.896,150.033h0.961v-0.695h-2.727v0.695h0.854v2.885h0.91v-2.885H210.896z"/>
	<path fill="#06C7FF" d="M212.93,150.46h0.269l0.905,2.458h0.43l0.908-2.458v2.458h0.695v-3.58h-1.125l-0.748,2.458l-0.854-2.458
		h-1.123v3.58h0.643V150.46L212.93,150.46z"/>
</g>
</svg>
